<?xml version="1.0" standalone="no"?>
<!DOCTYPE svg PUBLIC "-//W3C//DTD SVG 20010904//EN"
 "http://www.w3.org/TR/2001/REC-SVG-20010904/DTD/svg10.dtd">
<svg version="1.0" xmlns="http://www.w3.org/2000/svg"
 width="1024.000000pt" height="1024.000000pt" viewBox="0 0 1024.000000 1024.000000"
 preserveAspectRatio="xMidYMid meet">

<g transform="translate(0.000000,1024.000000) scale(0.100000,-0.100000)"
fill="#000000" stroke="none">
<path d="M4500 8670 c-91 -10 -194 -26 -230 -35 -362 -88 -609 -300 -656 -565
-23 -130 -9 -418 25 -530 26 -83 71 -528 71 -699 l0 -39 -89 -4 c-72 -2 -95
-7 -118 -24 -53 -39 -53 -40 -53 -461 l0 -392 48 -32 c47 -33 110 -81 291
-224 93 -72 95 -75 111 -137 94 -362 134 -503 226 -793 30 -93 57 -185 60
-204 6 -30 5 -33 -13 -27 -14 4 -62 -11 -139 -44 -179 -77 -342 -152 -399
-183 -75 -41 -173 -86 -340 -157 -82 -35 -188 -83 -234 -107 -46 -24 -109 -54
-140 -67 -129 -55 -341 -154 -569 -268 -175 -87 -251 -130 -272 -155 l-31 -34
7 -247 c4 -136 5 -245 2 -242 -23 23 -110 145 -132 185 -16 28 -44 69 -62 92
-19 23 -34 45 -34 51 0 5 -18 34 -39 64 -21 31 -42 66 -46 79 -4 12 -23 52
-42 88 -19 36 -52 111 -74 166 -23 55 -49 118 -59 140 -31 70 -108 306 -129
400 -12 50 -26 107 -31 127 -6 20 -22 126 -36 235 -22 167 -27 240 -28 463 -1
307 19 512 79 786 32 147 137 457 198 585 19 41 52 111 72 157 36 81 73 147
160 287 25 39 49 78 55 87 9 15 4 22 -30 45 -23 16 -89 63 -147 106 -59 43
-113 77 -121 75 -8 -2 -32 -37 -54 -78 -22 -41 -57 -102 -77 -136 -96 -154
-291 -603 -346 -794 -7 -25 -23 -78 -34 -119 -12 -41 -29 -106 -38 -145 -8
-39 -19 -89 -24 -111 -49 -224 -78 -669 -60 -939 13 -199 34 -380 58 -496 8
-41 21 -106 28 -145 7 -38 18 -81 23 -95 6 -14 22 -68 37 -120 30 -107 99
-294 143 -391 16 -35 44 -98 62 -139 88 -201 155 -325 259 -479 31 -46 78
-118 104 -159 51 -79 102 -145 174 -222 23 -25 72 -81 109 -125 148 -179 434
-453 594 -571 201 -148 311 -224 325 -224 5 0 17 -7 27 -17 10 -9 27 -21 38
-27 11 -6 70 -41 132 -77 62 -37 136 -77 163 -89 110 -50 214 -94 295 -125 47
-18 136 -53 198 -78 247 -100 669 -190 1117 -237 127 -13 498 -13 511 0 5 5
39 10 74 11 69 2 159 16 330 49 58 12 141 27 185 34 165 28 419 102 554 163
31 14 79 32 106 40 28 8 61 21 75 29 14 7 95 43 180 79 85 37 180 83 210 102
107 69 126 81 214 133 49 30 112 72 140 95 28 22 83 62 121 87 81 53 90 60
284 234 263 236 517 530 696 804 136 210 245 397 245 422 0 5 14 37 31 71 101
204 204 471 249 647 6 25 24 97 41 160 60 232 80 400 95 790 10 265 -28 695
-76 868 -11 40 -36 132 -55 205 -56 218 -77 279 -146 434 -95 213 -129 284
-186 398 -36 72 -80 150 -98 175 -18 25 -40 61 -48 81 -8 20 -20 40 -26 43 -6
4 -32 -12 -58 -36 -27 -24 -77 -68 -113 -98 -94 -80 -110 -96 -110 -109 0 -7
36 -75 79 -152 187 -329 313 -627 381 -904 17 -66 30 -132 30 -147 0 -15 6
-57 14 -95 8 -38 20 -129 25 -203 6 -74 15 -176 20 -226 21 -206 -27 -724 -91
-994 -28 -121 -131 -420 -177 -515 -21 -44 -47 -100 -57 -125 -10 -25 -32 -70
-48 -100 -16 -30 -38 -73 -49 -95 -27 -55 -163 -284 -187 -315 -20 -25 -20
-25 -20 197 l0 223 -282 139 c-156 77 -335 161 -398 186 -63 26 -153 67 -200
90 -123 62 -253 122 -375 175 -86 36 -141 61 -285 130 -91 43 -221 104 -289
136 -69 31 -147 70 -173 85 l-49 29 -40 -21 c-45 -22 -55 -20 -42 8 5 10 22
63 38 118 15 55 43 150 62 210 19 61 53 173 74 250 22 77 47 163 55 190 9 28
22 77 29 110 8 33 27 100 43 148 32 100 10 79 304 299 l138 103 0 390 c0 490
9 466 -177 480 l-90 7 5 52 c2 28 12 107 22 176 17 116 27 178 65 401 33 193
12 424 -50 564 -115 257 -408 454 -840 564 -435 111 -901 152 -1255 111z
m1698 -2142 c9 -9 51 -14 127 -16 l115 -4 0 -201 -1 -202 -140 -105 c-77 -57
-162 -119 -189 -137 -52 -35 -54 -38 -86 -178 -9 -38 -31 -119 -49 -180 -18
-60 -46 -155 -61 -210 -15 -55 -44 -152 -64 -215 -20 -63 -45 -145 -56 -182
l-19 -68 -637 0 -637 0 -16 58 c-17 63 -47 165 -75 257 -11 33 -23 76 -29 95
-118 419 -172 586 -193 603 -59 46 -201 147 -206 147 -4 0 -17 11 -30 24 -12
13 -45 41 -72 62 l-50 38 0 198 0 198 94 0 c87 0 97 2 125 26 l31 26 0 370 0
370 33 -20 c58 -36 420 -179 507 -201 195 -48 449 -47 616 3 140 42 452 173
597 253 78 42 187 100 242 129 l100 52 5 -488 c4 -382 8 -492 18 -502z m-208
-2114 c-30 -19 -97 -58 -148 -86 -52 -28 -117 -66 -145 -85 -29 -18 -124 -70
-212 -115 -88 -44 -178 -93 -200 -107 -22 -15 -60 -39 -85 -53 -52 -30 -45
-32 -175 47 -38 23 -142 76 -229 119 -87 42 -180 91 -205 110 -26 18 -107 66
-181 106 -74 39 -138 77 -142 83 -5 7 1 14 13 17 11 3 413 4 892 2 l872 -3
-55 -35z m890 -2423 c0 -44 -3 -86 -6 -95 -3 -8 -50 -38 -104 -66 l-99 -50
-1563 0 -1564 0 -72 35 -72 34 0 111 0 110 1740 0 1740 0 0 -79z"/>
<path d="M10080 80 l0 -80 80 0 80 0 0 80 0 80 -80 0 -80 0 0 -80z"/>
</g>
</svg>
